<?xml version="1.0" encoding="UTF-8" standalone="no"?>
<svg
   xmlns:dc="http://purl.org/dc/elements/1.1/"
   xmlns:cc="http://creativecommons.org/ns#"
   xmlns:rdf="http://www.w3.org/1999/02/22-rdf-syntax-ns#"
   xmlns:svg="http://www.w3.org/2000/svg"
   xmlns="http://www.w3.org/2000/svg"
   xmlns:sodipodi="http://sodipodi.sourceforge.net/DTD/sodipodi-0.dtd"
   xmlns:inkscape="http://www.inkscape.org/namespaces/inkscape"
   aria-label="Slack"
   class="c-nav--footer__svgicon c-slackhash svg-replaced"
   viewBox="-101 331 339.99997 340.00003"
   version="1.1"
   id="svg18"
   sodipodi:docname="image.svg"
   width="339.99997"
   height="340.00003"
   style="shape-rendering:geometricPrecision"
   inkscape:version="0.92.3 (2405546, 2018-03-11)">
  <metadata
     id="metadata24">
    <rdf:RDF>
      <cc:Work
         rdf:about="">
        <dc:format>image/svg+xml</dc:format>
        <dc:type
           rdf:resource="http://purl.org/dc/dcmitype/StillImage" />
        <dc:title></dc:title>
      </cc:Work>
    </rdf:RDF>
  </metadata>
  <defs
     id="defs22" />
  <sodipodi:namedview
     pagecolor="#ffffff"
     bordercolor="#666666"
     borderopacity="1"
     objecttolerance="10"
     gridtolerance="10"
     guidetolerance="10"
     inkscape:pageopacity="0"
     inkscape:pageshadow="2"
     inkscape:window-width="1440"
     inkscape:window-height="1212"
     id="namedview20"
     showgrid="false"
     fit-margin-top="0"
     fit-margin-left="0"
     fit-margin-right="0"
     fit-margin-bottom="0"
     inkscape:zoom="0.89393939"
     inkscape:cx="157.39161"
     inkscape:cy="6.5425402"
     inkscape:window-x="1440"
     inkscape:window-y="1269"
     inkscape:window-maximized="0"
     inkscape:current-layer="svg18"
     inkscape:pagecheckerboard="true" />
  <rect
     style="opacity:1;vector-effect:none;fill:#ffffff;fill-opacity:1;stroke-width:0.91881317;stroke-linecap:butt;stroke-linejoin:miter;stroke-miterlimit:4;stroke-dasharray:none;stroke-dashoffset:0;stroke-opacity:1"
     id="rect4817"
     width="271.83051"
     height="284.13559"
     x="-67.440674"
     y="359.13565" />
  <g
     id="g4809"
     style="fill:#000000"
     transform="matrix(1.0826392,0,0,1.0826392,42.96389,8.0296018)">
    <path
       style="fill:#000000"
       id="path2"
       d="m -16.7,343.1 a 11,11 0 0 0 -13.7,-7 11,11 0 0 0 -7,13.7 l 28.1,86.4 c 1.9,5.3 7.7,8.3 13.2,6.7 5.8,-1.7 9.3,-7.8 7.4,-13.4 z"
       inkscape:connector-curvature="0" />
    <path
       style="fill:#000000"
       id="path4"
       d="m -60.2,357.2 a 11,11 0 0 0 -13.7,-7 11,11 0 0 0 -7,13.7 l 28.1,86.4 c 1.9,5.3 7.7,8.3 13.2,6.7 5.8,-1.7 9.3,-7.8 7.4,-13.4 z"
       inkscape:connector-curvature="0" />
    <path
       style="fill:#000000"
       id="path6"
       d="m 18.7,414.6 a 11,11 0 0 0 7,-13.7 11,11 0 0 0 -13.7,-7 l -86.5,28.2 a 10.8,10.8 0 0 0 -6.7,13.2 c 1.7,5.8 7.8,9.3 13.4,7.4 z"
       inkscape:connector-curvature="0" />
    <path
       style="fill:#000000"
       id="path8"
       d="m -56.5,439.1 20.7,-6.7 -6.7,-20.7 -20.7,6.7 z"
       inkscape:connector-curvature="0" />
    <path
       style="fill:#000000"
       id="path10"
       d="m -12.9,424.9 20.7,-6.7 -6.7,-20.7 -20.7,6.7 z"
       inkscape:connector-curvature="0" />
    <path
       style="fill:#000000"
       id="path12"
       d="m 4.5,371.1 a 11,11 0 0 0 7,-13.7 11,11 0 0 0 -13.7,-7 l -86.4,28.1 a 10.8,10.8 0 0 0 -6.7,13.2 c 1.7,5.8 7.8,9.3 13.4,7.4 z"
       inkscape:connector-curvature="0" />
    <path
       style="fill:#000000"
       id="path14"
       d="m -70.6,395.5 20.7,-6.7 -6.7,-20.7 -20.7,6.7 z"
       inkscape:connector-curvature="0" />
    <path
       style="fill:#000000"
       id="path16"
       d="m -27.1,381.4 20.7,-6.7 -6.7,-20.7 -20.7,6.7 z"
       inkscape:connector-curvature="0" />
  </g>
  <g
     id="g4789"
     transform="matrix(0.03264952,0,0,-0.03258541,-112.14599,675.7225)"
     style="fill:#000000;stroke:none">
    <path
       id="path4787"
       d="m 10520,10533 c -130,-80 -540,-352 -662,-439 l -118,-85 -118,78 c -288,191 -648,340 -986,408 -318,64 -106,60 -3071,60 -2802,0 -2752,1 -3000,-41 -459,-77 -928,-287 -1295,-580 C 1161,9847 973,9659 886,9550 603,9194 439,8823 362,8356 c -15,-92 -17,-344 -20,-2916 -2,-1836 1,-2860 7,-2945 25,-324 101,-600 242,-885 142,-287 310,-512 549,-735 341,-320 791,-554 1270,-663 317,-72 63,-67 3145,-67 h 2770 l 140,22 c 929,149 1667,670 2050,1448 110,224 177,434 222,702 17,103 18,248 18,3023 0,3096 2,2959 -46,3185 -77,364 -250,723 -497,1032 -79,100 -90,116 -74,111 8,-3 353,357 449,469 94,109 115,163 63,163 -41,0 -331,-164 -405,-229 -96,-85 -53,-37 171,187 l 251,251 -29,36 c -16,19 -33,35 -36,34 -4,0 -41,-21 -82,-46 z M 8365,9442 c 61,-12 149,-33 196,-46 96,-29 259,-94 259,-105 0,-4 -82,-78 -182,-166 C 7319,7971 5976,6441 4769,4715 c -97,-137 -207,-296 -245,-353 -38,-56 -74,-100 -80,-98 -9,3 -1374,818 -2181,1302 l -72,43 -30,-38 -31,-38 112,-139 c 496,-616 2631,-3234 2637,-3234 4,0 13,10 20,22 6,13 9,15 7,6 -5,-19 50,-73 91,-89 39,-15 85,11 120,67 16,27 74,144 128,259 274,583 765,1531 1110,2140 849,1501 1864,2942 2918,4143 64,74 105,128 101,135 -4,7 3,3 15,-8 59,-52 172,-258 221,-403 65,-195 61,14 58,-3127 l -3,-2850 -27,-100 c -16,-55 -38,-125 -50,-155 -149,-378 -465,-686 -866,-845 -191,-75 -349,-110 -567,-125 -190,-13 -5023,-13 -5213,0 -243,17 -443,67 -649,165 -447,212 -744,571 -840,1018 -17,77 -18,244 -18,2932 0,2702 1,2854 18,2935 38,180 100,328 203,482 254,382 708,644 1209,697 44,5 1275,8 2735,7 l 2655,-2 z"
       inkscape:connector-curvature="0" />
  </g>
</svg>
